<?xml version="1.0" encoding="UTF-8" standalone="no"?>
<svg
   xmlns:dc="http://purl.org/dc/elements/1.1/"
   xmlns:cc="http://creativecommons.org/ns#"
   xmlns:rdf="http://www.w3.org/1999/02/22-rdf-syntax-ns#"
   xmlns:svg="http://www.w3.org/2000/svg"
   xmlns="http://www.w3.org/2000/svg"
   viewBox="0 0 163.75 256.25"
   height="256.25"
   width="163.75"
   xml:space="preserve"
   version="1.1"
   id="svg3729"><metadata
     id="metadata3735"><rdf:RDF><cc:Work
         rdf:about=""><dc:format>image/svg+xml</dc:format><dc:type
           rdf:resource="http://purl.org/dc/dcmitype/StillImage" /><dc:title></dc:title></cc:Work></rdf:RDF></metadata><defs
     id="defs3733"><clipPath
       id="clipPath3745"
       clipPathUnits="userSpaceOnUse"><path
         id="path3747"
         d="M 0,0 131,0 131,205 0,205 0,0 Z" /></clipPath></defs><g
     transform="matrix(1.25,0,0,-1.25,0,256.25)"
     id="g3737"><g
       id="g3739" /><g
       id="g3741"><g
         clip-path="url(#clipPath3745)"
         id="g3743"><path
           id="path3749"
           style="fill:#ffffff;fill-opacity:0;fill-rule:evenodd;stroke:none"
           d="M 0,205 131,205 131,0 0,0 0,205 Z" /><path
           id="path3751"
           style="fill:#305274;fill-opacity:1;fill-rule:evenodd;stroke:none"
           d="m 122.503,204.354 c 4.6928,0 8.497,-3.8042 8.497,-8.497 L 131,8.497118 C 131,3.804303 127.1958,3.091921e-5 122.503,3.091921e-5 l -113.269727,0 C 4.540457,3.091921e-5 0.7361856,3.804303 0.7361856,8.497118 l 0,187.359882 c 0,4.6928 3.8042714,8.497 8.4970874,8.497 l 113.269727,0 z" /><path
           id="path3753"
           style="fill:#a5c1df;fill-opacity:1;fill-rule:evenodd;stroke:none"
           d="m 111.6056,191.727 c 3.5815,0 6.4849,-2.9034 6.4849,-6.485 l 0,-137.76928 c 0,-3.58155 -2.9034,-6.48496 -6.4849,-6.48496 l -91.47509,0 c -3.58154,0 -6.48496,2.90341 -6.48496,6.48496 l 0,137.76928 c 0,3.5816 2.90342,6.485 6.48496,6.485 l 91.47509,0 z" /><path
           id="path3755"
           style="fill:#ffffff;fill-opacity:1;fill-rule:evenodd;stroke:none"
           d="m 53.73622,25.17693 c 0,3.20925 2.60161,5.81086 5.81087,5.81086 l 12.64204,0 C 75.39838,30.98779 78,28.38618 78,25.17693 l 0,-9.00898 c 0,-3.20925 -2.60162,-5.81087 -5.81087,-5.81087 l -12.64204,0 c -3.20926,0 -5.81087,2.60162 -5.81087,5.81087 l 0,9.00898 z" /><path
           id="path3757"
           style="fill:#c5d7ea;fill-opacity:0.34900004;fill-rule:evenodd;stroke:none"
           d="M 111.6055,191.7379 13.64909,98.45311 13.64547,185.253 c 0,3.5815 2.90338,6.4849 6.48496,6.4849 l 91.47507,0 z" /></g></g></g></svg>