<?xml version="1.0" encoding="UTF-8" standalone="no"?>
<svg
   xmlns:dc="http://purl.org/dc/elements/1.1/"
   xmlns:cc="http://creativecommons.org/ns#"
   xmlns:rdf="http://www.w3.org/1999/02/22-rdf-syntax-ns#"
   xmlns:svg="http://www.w3.org/2000/svg"
   xmlns="http://www.w3.org/2000/svg"
   viewBox="0 0 331.25 248.75"
   height="248.75"
   width="331.25"
   xml:space="preserve"
   version="1.1"
   id="svg3597"><metadata
     id="metadata3603"><rdf:RDF><cc:Work
         rdf:about=""><dc:format>image/svg+xml</dc:format><dc:type
           rdf:resource="http://purl.org/dc/dcmitype/StillImage" /><dc:title></dc:title></cc:Work></rdf:RDF></metadata><defs
     id="defs3601"><clipPath
       id="clipPath3613"
       clipPathUnits="userSpaceOnUse"><path
         id="path3615"
         d="M 0,0 265,0 265,199 0,199 0,0 Z" /></clipPath></defs><g
     transform="matrix(1.25,0,0,-1.25,0,248.75)"
     id="g3605"><g
       id="g3607" /><g
       id="g3609"><g
         clip-path="url(#clipPath3613)"
         id="g3611"><path
           id="path3617"
           style="fill:#ffffff;fill-opacity:0;fill-rule:evenodd;stroke:none"
           d="M 0,199 265,199 265,0 0,0 0,199 Z" /><path
           id="path3619"
           style="fill:#305274;fill-opacity:1;fill-rule:evenodd;stroke:none"
           d="m 15.13465,192.7965 c 0,3.2149 2.60612,5.821 5.82094,5.821 l 222.37601,0 c 3.2149,0 5.821,-2.6061 5.821,-5.821 l 0,-127.54855 c 0,-3.21482 -2.6061,-5.82095 -5.821,-5.82095 l -222.37601,0 c -3.21482,0 -5.82094,2.60613 -5.82094,5.82095 l 0,127.54855 z" /><path
           id="path3621"
           style="fill:#305274;fill-opacity:1;fill-rule:evenodd;stroke:none"
           d="m 15.13465,74.81763 234.01795,0 0,-15.39062 -234.01795,0 0,15.39062 z" /><path
           id="path3623"
           style="fill:#a5c1df;fill-opacity:1;fill-rule:evenodd;stroke:none"
           d="m 22.75354,188.2479 c 0,1.7643 1.4303,3.1946 3.19465,3.1946 l 212.39081,0 c 1.7643,0 3.1946,-1.4303 3.1946,-3.1946 l 0,-118.45128 c 0,-1.76436 -1.4303,-3.19465 -3.1946,-3.19465 l -212.39081,0 c -1.76435,0 -3.19465,1.43029 -3.19465,3.19465 l 0,118.45128 z" /><path
           id="path3625"
           style="fill:#4675a3;fill-opacity:1;fill-rule:evenodd;stroke:none"
           d="m 0,11.7441 16.02472,46.64189 232.23778,0 L 264.2872,11.7441 0,11.7441 Z" /><path
           id="path3627"
           style="fill:#305274;fill-opacity:1;fill-rule:evenodd;stroke:none"
           d="m 0,11.26661 c 0,0.26353 0.2136342,0.47716 0.4771654,0.47716 l 263.3329346,0 c 0.2635,0 0.4772,-0.21363 0.4772,-0.47716 l 0,-10.4559853 c 0,-0.2635311 -0.2137,-0.4771654 -0.4772,-0.4771654 l -263.3329346,0 C 0.2136342,0.3334593 0,0.5470936 0,0.8106247 L 0,11.26661 Z" /><path
           id="path3629"
           style="fill:#a5c1df;fill-opacity:0.67839996;fill-rule:evenodd;stroke:none"
           d="m 16.88779,20.41622 10.60449,32.86276 209.30262,0 10.6045,-32.86276 -230.51161,0 z" /><path
           id="path3631"
           style="fill:#c5d7ea;fill-opacity:0.34900004;fill-rule:evenodd;stroke:none"
           d="m 22.75354,188.9566 c 0,1.3729 1.113,2.4859 2.48591,2.4859 l 116.07375,0 -118.55966,-94.65785 0,92.17195 z" /><path
           id="path3633"
           style="fill:#4675a3;fill-opacity:0.10199998;fill-rule:evenodd;stroke:none"
           d="M 22.75354,82.58039 C 22.75354,82.81213 22.94141,83 23.17315,83 L 241.114,83 c 0.2318,0 0.4196,-0.18787 0.4196,-0.41961 l 0,-15.55881 c 0,-0.23175 -0.1878,-0.41961 -0.4196,-0.41961 l -217.94085,0 c -0.23174,0 -0.41961,0.18786 -0.41961,0.41961 l 0,15.55881 z" /></g></g></g></svg>