<?xml version="1.0" encoding="UTF-8" standalone="no"?>
<svg
   xmlns:dc="http://purl.org/dc/elements/1.1/"
   xmlns:cc="http://creativecommons.org/ns#"
   xmlns:rdf="http://www.w3.org/1999/02/22-rdf-syntax-ns#"
   xmlns:svg="http://www.w3.org/2000/svg"
   xmlns="http://www.w3.org/2000/svg"
   viewBox="0 0 336.25 265"
   height="265"
   width="336.25"
   xml:space="preserve"
   version="1.1"
   id="svg3956"><metadata
     id="metadata3962"><rdf:RDF><cc:Work
         rdf:about=""><dc:format>image/svg+xml</dc:format><dc:type
           rdf:resource="http://purl.org/dc/dcmitype/StillImage" /><dc:title></dc:title></cc:Work></rdf:RDF></metadata><defs
     id="defs3960"><clipPath
       id="clipPath3972"
       clipPathUnits="userSpaceOnUse"><path
         id="path3974"
         d="M 0,0 269,0 269,212 0,212 0,0 Z" /></clipPath></defs><g
     transform="matrix(1.25,0,0,-1.25,0,265)"
     id="g3964"><g
       id="g3966" /><g
       id="g3968"><g
         clip-path="url(#clipPath3972)"
         id="g3970"><path
           id="path3976"
           style="fill:#ffffff;fill-opacity:0;fill-rule:evenodd;stroke:none"
           d="M 0,212 269,212 269,0 0,0 0,212 Z" /><path
           id="path3978"
           style="fill:#6683ae;fill-opacity:1;fill-rule:evenodd;stroke:none"
           d="m 106.3333,14.5 4.021,22.24992 47.7969,0 4.021,-22.24992 -55.8389,0 z" /><path
           id="path3980"
           style="fill:#305274;fill-opacity:1;fill-rule:evenodd;stroke:none"
           d="m 0.8942519,203.8549 c 0,4.0681 3.2978991,7.366 7.3660631,7.366 l 253.318385,0 c 4.0681,0 7.366,-3.2979 7.366,-7.366 l 0,-161.40545 c 0,-4.06817 -3.2979,-7.36606 -7.366,-7.36606 l -253.318385,0 c -4.068164,0 -7.3660631,3.29789 -7.3660631,7.36606 l 0,161.40545 z" /><path
           id="path3982"
           style="fill:#a5c1df;fill-opacity:1;fill-rule:evenodd;stroke:none"
           d="m 8.954488,199.1062 c 0,1.8617 1.509192,3.3709 3.370862,3.3709 l 243.85485,0 c 1.8616,0 3.3708,-1.5092 3.3708,-3.3709 l 0,-124.98534 c 0,-1.86167 -1.5092,-3.37087 -3.3708,-3.37087 l -243.85485,0 c -1.86167,0 -3.370862,1.5092 -3.370862,3.37087 l 0,124.98534 z" /><path
           id="path3984"
           style="fill:#ffffff;fill-opacity:1;fill-rule:evenodd;stroke:none"
           d="m 117.2557,56.21134 c 0,1.75361 1.4216,3.1752 3.1752,3.1752 l 27.6439,0 c 1.7536,0 3.1752,-1.42159 3.1752,-3.1752 l 0,-4.92268 c 0,-1.75361 -1.4216,-3.1752 -3.1752,-3.1752 l -27.6439,0 c -1.7536,0 -3.1752,1.42159 -3.1752,3.1752 l 0,4.92268 z" /><path
           id="path3986"
           style="fill:#4675a3;fill-opacity:1;fill-rule:evenodd;stroke:none"
           d="m 89.46126,12.43622 c 0,1.59084 1.28963,2.88048 2.88047,2.88048 l 83.82217,0 c 1.5908,0 2.8804,-1.28964 2.8804,-2.88048 l 0,-9.138973 c 0,-1.590841 -1.2896,-2.8804723 -2.8804,-2.8804723 l -83.82217,0 c -1.59084,0 -2.88047,1.2896313 -2.88047,2.8804723 l 0,9.138973 z" /><path
           id="path3988"
           style="fill:#c5d7ea;fill-opacity:0.34900004;fill-rule:evenodd;stroke:none"
           d="m 8.95441,199.9913 c 0,1.3729 1.11299,2.4859 2.48591,2.4859 l 95.24038,0 -97.72629,-94.6579 0,92.172 z" /></g></g></g></svg>