<?xml version="1.0" encoding="UTF-8" standalone="no"?>
<svg
   xmlns:dc="http://purl.org/dc/elements/1.1/"
   xmlns:cc="http://creativecommons.org/ns#"
   xmlns:rdf="http://www.w3.org/1999/02/22-rdf-syntax-ns#"
   xmlns:svg="http://www.w3.org/2000/svg"
   xmlns="http://www.w3.org/2000/svg"
   viewBox="0 0 293.75 126.25"
   height="126.25"
   width="293.75"
   xml:space="preserve"
   version="1.1"
   id="svg3659"><metadata
     id="metadata3665"><rdf:RDF><cc:Work
         rdf:about=""><dc:format>image/svg+xml</dc:format><dc:type
           rdf:resource="http://purl.org/dc/dcmitype/StillImage" /><dc:title></dc:title></cc:Work></rdf:RDF></metadata><defs
     id="defs3663"><clipPath
       id="clipPath3675"
       clipPathUnits="userSpaceOnUse"><path
         id="path3677"
         d="M 0,0 235,0 235,101 0,101 0,0 Z" /></clipPath></defs><g
     transform="matrix(1.25,0,0,-1.25,0,126.25)"
     id="g3667"><g
       id="g3669" /><g
       id="g3671"><g
         clip-path="url(#clipPath3675)"
         id="g3673"><path
           id="path3679"
           style="fill:#ffffff;fill-opacity:0;fill-rule:evenodd;stroke:none"
           d="M 0,101 235,101 235,0 0,0 0,101 Z" /><path
           id="path3681"
           style="fill:#305274;fill-opacity:1;fill-rule:evenodd;stroke:none"
           d="m 0.7269291,96.12126 c 0,2.30576 1.8691939,4.17494 4.1749609,4.17494 l 225.66801,0 c 2.3058,0 4.175,-1.86918 4.175,-4.17494 l 0,-91.481027 c 0,-2.305767 -1.8692,-4.1749605 -4.175,-4.1749605 l -225.66801,0 c -2.305767,0 -4.1749609,1.8691935 -4.1749609,4.1749605 l 0,91.481027 z" /><path
           id="path3683"
           style="fill:#a5c1df;fill-opacity:1;fill-rule:evenodd;stroke:none"
           d="m 8.345905,84.70078 c 0,3.35068 2.716255,6.06694 6.066925,6.06694 l 206.64627,0 c 3.3506,0 6.0669,-2.71626 6.0669,-6.06694 l 0,-68.63999 c 0,-3.35068 -2.7163,-6.066934 -6.0669,-6.066934 l -206.64627,0 c -3.35067,0 -6.066925,2.716254 -6.066925,6.066934 l 0,68.63999 z" /><path
           id="path3685"
           style="fill:#305274;fill-opacity:1;fill-rule:evenodd;stroke:none"
           d="m 17.47693,80.47567 c 0,1.96239 1.59083,3.55323 3.55323,3.55323 l 12.49992,0 c 1.96239,0 3.55323,-1.59084 3.55323,-3.55323 l 0,-60.18976 c 0,-1.9624 -1.59084,-3.55323 -3.55323,-3.55323 l -12.49992,0 c -1.9624,0 -3.55323,1.59083 -3.55323,3.55323 l 0,60.18976 z" /><path
           id="path3687"
           style="fill:#305274;fill-opacity:1;fill-rule:evenodd;stroke:none"
           d="m 120.9965,55.85661 c -6.464,0 -11.704,5.24004 -11.704,11.70394 l 0,0 c 0,6.46391 5.24,11.70394 11.704,11.70394 l 79.0499,0 c 6.4639,0 11.7039,-5.24003 11.7039,-11.70394 l 0,0 c 0,-6.4639 -5.24,-11.70394 -11.7039,-11.70394 l -79.0499,0 z" /><path
           id="path3689"
           style="fill:#305274;fill-opacity:1;fill-rule:evenodd;stroke:none"
           d="m 113.8626,38.96716 c 0,3.3398 2.7074,6.04725 6.0472,6.04725 l 12.7904,0 c 3.3398,0 6.0473,-2.70745 6.0473,-6.04725 l 0,-11.42283 c 0,-3.3398 -2.7075,-6.04724 -6.0473,-6.04724 l -12.7904,0 c -3.3398,0 -6.0472,2.70744 -6.0472,6.04724 l 0,11.42283 z" /><path
           id="path3691"
           style="fill:#305274;fill-opacity:1;fill-rule:evenodd;stroke:none"
           d="m 148.0788,38.96716 c 0,3.3398 2.7075,6.04725 6.0473,6.04725 l 12.7903,0 c 3.3399,0 6.0473,-2.70745 6.0473,-6.04725 l 0,-11.42283 c 0,-3.3398 -2.7074,-6.04724 -6.0473,-6.04724 l -12.7903,0 c -3.3398,0 -6.0473,2.70744 -6.0473,6.04724 l 0,11.42283 z" /><path
           id="path3693"
           style="fill:#305274;fill-opacity:1;fill-rule:evenodd;stroke:none"
           d="m 182.2951,38.96716 c 0,3.3398 2.7075,6.04725 6.0473,6.04725 l 12.7904,0 c 3.3398,0 6.0472,-2.70745 6.0472,-6.04725 l 0,-11.42283 c 0,-3.3398 -2.7074,-6.04724 -6.0472,-6.04724 l -12.7904,0 c -3.3398,0 -6.0473,2.70744 -6.0473,6.04724 l 0,11.42283 z" /><path
           id="path3695"
           style="fill:#305274;fill-opacity:1;fill-rule:evenodd;stroke:none"
           d="m 45.89362,80.47567 c 0,1.96239 1.59084,3.55323 3.55323,3.55323 l 12.49992,0 c 1.9624,0 3.55323,-1.59084 3.55323,-3.55323 l 0,-60.18976 c 0,-1.9624 -1.59083,-3.55323 -3.55323,-3.55323 l -12.49992,0 c -1.96239,0 -3.55323,1.59083 -3.55323,3.55323 l 0,60.18976 z" /><path
           id="path3697"
           style="fill:#305274;fill-opacity:1;fill-rule:evenodd;stroke:none"
           d="m 74.31032,80.47567 c 0,1.96239 1.59083,3.55323 3.55323,3.55323 l 12.49991,0 c 1.9624,0 3.55323,-1.59084 3.55323,-3.55323 l 0,-60.18976 c 0,-1.9624 -1.59083,-3.55323 -3.55323,-3.55323 l -12.49991,0 c -1.9624,0 -3.55323,1.59083 -3.55323,3.55323 l 0,60.18976 z" /></g></g></g></svg>