<?xml version="1.0" encoding="UTF-8" standalone="no"?>
<svg
   xmlns:dc="http://purl.org/dc/elements/1.1/"
   xmlns:cc="http://creativecommons.org/ns#"
   xmlns:rdf="http://www.w3.org/1999/02/22-rdf-syntax-ns#"
   xmlns:svg="http://www.w3.org/2000/svg"
   xmlns="http://www.w3.org/2000/svg"
   viewBox="0 0 97.5 158.75"
   height="158.75"
   width="97.5"
   xml:space="preserve"
   version="1.1"
   id="svg3699"><metadata
     id="metadata3705"><rdf:RDF><cc:Work
         rdf:about=""><dc:format>image/svg+xml</dc:format><dc:type
           rdf:resource="http://purl.org/dc/dcmitype/StillImage" /><dc:title></dc:title></cc:Work></rdf:RDF></metadata><defs
     id="defs3703"><clipPath
       id="clipPath3715"
       clipPathUnits="userSpaceOnUse"><path
         id="path3717"
         d="M 0,0 78,0 78,127 0,127 0,0 Z" /></clipPath></defs><g
     transform="matrix(1.25,0,0,-1.25,0,158.75)"
     id="g3707"><g
       id="g3709" /><g
       id="g3711"><g
         clip-path="url(#clipPath3715)"
         id="g3713"><path
           id="path3719"
           style="fill:#ffffff;fill-opacity:0;fill-rule:evenodd;stroke:none"
           d="M 0,127 78,127 78,0 0,0 0,127 Z" /><path
           id="path3721"
           style="fill:#305274;fill-opacity:1;fill-rule:evenodd;stroke:none"
           d="m 69.23256,127 c 4.41215,0 7.9889,-3.5768 7.9889,-7.9889 l 0,-111.0224 c 0,-4.412145 -3.57675,-7.9888975013 -7.9889,-7.9888975013 l -60.50748,0 C 4.312934,-1.975013e-4 0.7361817,3.576555 0.7361817,7.9887 l 0,111.0224 c 0,4.4121 3.5767523,7.9889 7.9888983,7.9889 l 60.50748,0 z" /><path
           id="path3723"
           style="fill:#a5c1df;fill-opacity:1;fill-rule:evenodd;stroke:none"
           d="m 63.42764,116.8473 c 2.58843,0 4.68677,-2.0983 4.68677,-4.6868 l 0,-71.12633 c 0,-2.58843 -2.09834,-4.68677 -4.68677,-4.68677 l -48.89772,0 c -2.58843,0 -4.68677,2.09834 -4.68677,4.68677 l 0,71.12633 c 0,2.5885 2.09834,4.6868 4.68677,4.6868 l 48.89772,0 z" /><path
           id="path3725"
           style="fill:#ffffff;fill-opacity:1;fill-rule:evenodd;stroke:none"
           d="m 27.95764,19.7926 c 0,1.63333 1.32407,2.9574 2.9574,2.9574 l 16.12756,0 C 48.67593,22.75 50,21.42593 50,19.7926 l 0,-4.5852 C 50,13.57407 48.67593,12.25 47.0426,12.25 l -16.12756,0 c -1.63333,0 -2.9574,1.32407 -2.9574,2.9574 l 0,4.5852 z" /><path
           id="path3727"
           style="fill:#c5d7ea;fill-opacity:0.34900004;fill-rule:evenodd;stroke:none"
           d="M 59.95976,116.8473 9.864408,69.3474 9.843147,112.4639 c 0,2.4209 1.962523,4.3834 4.383463,4.3834 l 45.73315,0 z" /></g></g></g></svg>