<?xml version="1.0" encoding="UTF-8" standalone="no"?>
<svg
   xmlns:dc="http://purl.org/dc/elements/1.1/"
   xmlns:cc="http://creativecommons.org/ns#"
   xmlns:rdf="http://www.w3.org/1999/02/22-rdf-syntax-ns#"
   xmlns:svg="http://www.w3.org/2000/svg"
   xmlns="http://www.w3.org/2000/svg"
   viewBox="0 0 151.25 210"
   height="210"
   width="151.25"
   xml:space="preserve"
   version="1.1"
   id="svg3759"><metadata
     id="metadata3765"><rdf:RDF><cc:Work
         rdf:about=""><dc:format>image/svg+xml</dc:format><dc:type
           rdf:resource="http://purl.org/dc/dcmitype/StillImage" /><dc:title></dc:title></cc:Work></rdf:RDF></metadata><defs
     id="defs3763"><clipPath
       id="clipPath3775"
       clipPathUnits="userSpaceOnUse"><path
         id="path3777"
         d="M 0,0 121,0 121,168 0,168 0,0 Z" /></clipPath></defs><g
     transform="matrix(1.25,0,0,-1.25,0,210)"
     id="g3767"><g
       id="g3769" /><g
       id="g3771"><g
         clip-path="url(#clipPath3775)"
         id="g3773"><path
           id="path3779"
           style="fill:#ffffff;fill-opacity:0;fill-rule:evenodd;stroke:none"
           d="M 0,168 121,168 121,0 0,0 0,168 Z" /><path
           id="path3781"
           style="fill:#a5c1df;fill-opacity:1;fill-rule:evenodd;stroke:none"
           d="m 18.63559,87.50141 c 0,-13.91814 18.63278,-25.20102 41.61748,-25.20102 22.9847,0 41.61753,11.28288 41.61753,25.20102 l 0,-60.30039 c 0,-13.91814 -18.63283,-25.201024 -41.61753,-25.201024 -22.9847,0 -41.61748,11.282884 -41.61748,25.201024 l 0,60.30039 z" /><path
           id="path3783"
           style="fill:#cadaec;fill-opacity:1;fill-rule:evenodd;stroke:none"
           d="m 18.63559,87.50141 c 0,13.91819 18.63278,25.20099 41.61748,25.20099 22.9847,0 41.61753,-11.2828 41.61753,-25.20099 0,-13.91814 -18.63283,-25.20102 -41.61753,-25.20102 -22.9847,0 -41.61748,11.28288 -41.61748,25.20102 z" /><g
           transform="matrix(7.874016e-5,0,0,-7.874016e-5,18.63559,112.7024)"
           id="g3785"><path
             id="path3787"
             style="fill:none;stroke:#4675a3;stroke-width:38100;stroke-linecap:butt;stroke-linejoin:round;stroke-miterlimit:10;stroke-dasharray:none;stroke-opacity:1"
             d="M 1057084,320053.1 C 1057084,496813.4 820447.7,640106 528542,640106 236636.3,640106 0.00354004,496813.4 0.00354004,320053.1 0.00354004,143292.6 236636.3,0.03289795 528542,0.03289795 820447.7,0.03289795 1057084,143292.6 1057084,320053.1 Z m 0,0 0,765814.9 c 0,176760 -236636.3,320053 -528542,320053 C 236636.3,1405921 0.00354004,1262628 0.00354004,1085868 l 0,-765814.9" /></g><path
           id="path3789"
           style="fill:#c5d7ea;fill-opacity:1;fill-rule:evenodd;stroke:none"
           d="m 1.536142,107.7169 c 0,32.4284 26.288468,58.7169 58.716928,58.7169 32.42846,0 58.71693,-26.2885 58.71693,-58.7169 0,-32.42852 -26.28847,-58.71698 -58.71693,-58.71698 -32.42846,0 -58.716928,26.28846 -58.716928,58.71698 z" /><g
           transform="matrix(7.874016e-5,0,0,-7.874016e-5,1.536142,166.4338)"
           id="g3791"><path
             id="path3793"
             style="fill:none;stroke:#4675a3;stroke-width:38100;stroke-linecap:butt;stroke-linejoin:round;stroke-miterlimit:10;stroke-dasharray:none;stroke-opacity:1"
             d="M 2.655983e-4,745705 C 2.655983e-4,333863.6 333863.5,0.03393555 745705,0.03393555 1157546,0.03393555 1491410,333863.6 1491410,745705 c 0,411841 -333864,745705 -745705,745705 C 333863.5,1491410 2.655983e-4,1157546 2.655983e-4,745705 Z" /></g><path
           id="path3795"
           style="fill:#e3ebf5;fill-opacity:0.52159998;fill-rule:evenodd;stroke:none"
           d="m 11.64701,113.485 c 0,25.8678 20.97006,46.8379 46.83795,46.8379 25.86789,0 46.83794,-20.9701 46.83794,-46.8379 0,-25.86793 -20.97005,-46.838 -46.83794,-46.838 -25.86789,0 -46.83795,20.97007 -46.83795,46.838 z" /><path
           id="path3797"
           style="fill:#e3ebf5;fill-opacity:0.76859999;fill-rule:evenodd;stroke:none"
           d="m 20.53669,123.2166 c 0,18.8973 15.31931,34.2166 34.21662,34.2166 18.89731,0 34.21661,-15.3193 34.21661,-34.2166 C 88.96992,104.3193 73.65062,89 54.75331,89 35.856,89 20.53669,104.3193 20.53669,123.2166 Z" /></g></g></g></svg>